<svg width="128" height="128" viewBox="0 0 128 128" xmlns="http://www.w3.org/2000/svg" role="img" aria-label="WineJS logo">
  <defs>
    <linearGradient id="stem" x1="0" x2="0" y1="0" y2="1">
      <stop offset="0%" stop-color="#8E2DE2" />
      <stop offset="100%" stop-color="#4A00E0" />
    </linearGradient>
    <linearGradient id="bowl" x1="0" x2="1" y1="0" y2="1">
      <stop offset="0%" stop-color="#F72585" />
      <stop offset="100%" stop-color="#7209B7" />
    </linearGradient>
  </defs>
  <rect width="128" height="128" rx="28" fill="#06070f" />
  <path d="M38 16h52c1.7 0 3.1 1.3 3.2 3.1C94 42 81.5 57.4 64 57.4S34 42 34.8 19c0.1-1.8 1.5-3 3.2-3z" fill="url(#bowl)" />
  <path d="M52 60h24v5c0 10.5-6 18.3-12 18.3s-12-7.8-12-18.3z" fill="#100c2a" opacity="0.45" />
  <rect x="60" y="65" width="8" height="36" rx="4" fill="url(#stem)" />
  <rect x="44" y="104" width="40" height="8" rx="4" fill="#f5f5ff" opacity="0.9" />
</svg>
